<?xml version="1.0" encoding="UTF-8"?>
<svg id="Layer_1" xmlns="http://www.w3.org/2000/svg" version="1.1" viewBox="0 0 130 48">
  <!-- Generator: Adobe Illustrator 29.1.0, SVG Export Plug-In . SVG Version: 2.1.0 Build 142)  -->
  <defs>
    <style>
      .st0 {
        fill: #fff;
      }

      .st1 {
        fill: #00ffb1;
      }

      .st2 {
        fill: #5c33ff;
        fill-rule: evenodd;
      }
    </style>
  </defs>
  <circle class="st1" cx="27.2" cy="19.2" r="3.2"/>
  <circle class="st1" cx="38.2" cy="14.2" r="3.2"/>
  <path class="st2" d="M9.2.2c-1.2.5-1.9,1.6-1.9,2.9s1.3,3.1,3,3.1.7,0,1.2.7l.6.7-1.7,1.7c-3.2,3.2-5.2,7-6.2,11.5-.3,1.3-.4,1.6-.8,1.9-1,.8-2.1,2-2.6,2.7-.9,1.5-1.2,3.8-.8,5.5.6,2.7,3,5,5.7,5.7.9.2.9.2,1.8,1.6,1.3,1.9,4,4.7,6,6,3.6,2.4,7.2,3.6,11.6,3.8,4.9.2,9.1-1,13-3.7,4.6-3.1,7.9-7.8,9.3-13.2.5-2.1.5-2.4-.1-.8-1.9,4.4-5.8,8-10.4,9.5-4.3,1.4-9.7.9-13.4-1.3-.4-.2-.7-.4-.8-.4s-.7.3-1.4.7c-1.5.9-3.6,1.6-5.4,1.9-1.2.2-1.3.2-1.6,0-.2-.2-.2-.4.6-1.4,1.6-2.1,2.5-4,2.5-5.5s-.1-1-.6-1.9c-2.3-4.3-2.8-8.8-1.5-13.4,1.3-4.5,4.5-8.4,8.5-10.5,4.8-2.5,10.3-2.6,15.2-.2,1.9.9,1.7.7-.7-1-2.6-1.8-5.1-2.9-8.2-3.5-2.3-.5-6.4-.5-8.7,0-2.6.6-5.3,1.6-7.2,2.9-.3.2-.7.3-.7.3,0,0-.3-.4-.6-.8l-.5-.6.3-.6c.2-.4.3-.9.3-1.2,0-1.1-.9-2.5-1.9-2.9-.5-.2-1.6-.2-2.1,0Z"/>
  <path class="st0" d="M58.8,23.6c0-1.6.4-3.1,1.1-4.4.8-1.3,1.8-2.3,3-3,1.3-.7,2.7-1.1,4.3-1.1s3.5.5,4.9,1.4c1.4,1,2.4,2.3,3,4h-3.9c-.4-.8-.9-1.4-1.6-1.8-.7-.4-1.5-.6-2.4-.6s-1.8.2-2.6.7c-.8.4-1.3,1.1-1.8,1.9-.4.8-.6,1.8-.6,2.9s.2,2.1.6,2.9c.4.8,1,1.5,1.8,1.9.8.4,1.6.7,2.6.7s1.7-.2,2.4-.6c.7-.4,1.2-1,1.6-1.8h3.9c-.6,1.7-1.5,3-3,4-1.4.9-3,1.4-4.9,1.4s-3-.4-4.3-1.1c-1.3-.7-2.3-1.8-3-3-.7-1.3-1.1-2.8-1.1-4.4ZM79.8,17.1c-.6,0-1.1-.2-1.5-.6-.4-.4-.6-.9-.6-1.4s.2-1,.6-1.4c.4-.4.9-.6,1.5-.6s1.1.2,1.5.6c.4.4.6.8.6,1.4s-.2,1-.6,1.4c-.4.4-.9.6-1.5.6ZM81.4,18.7v13.3h-3.4v-13.3h3.4ZM88.1,20.8c.4-.7,1-1.3,1.7-1.7.7-.4,1.5-.6,2.4-.6v3.5h-.9c-1.1,0-1.9.2-2.4.7-.5.5-.8,1.4-.8,2.6v6.6h-3.4v-13.3h3.4v2.1ZM96.2,17.1c-.6,0-1.1-.2-1.5-.6-.4-.4-.6-.9-.6-1.4s.2-1,.6-1.4c.4-.4.9-.6,1.5-.6s1.1.2,1.5.6c.4.4.6.8.6,1.4s-.2,1-.6,1.4c-.4.4-.9.6-1.5.6ZM97.8,18.7v13.3h-3.4v-13.3h3.4ZM117.1,28.8h-6.7l-1.1,3.2h-3.5l6-16.8h3.9l6,16.8h-3.6l-1.1-3.2ZM116.2,26.1l-2.4-7-2.4,7h4.8ZM127.4,15.2v16.8h-3.4V15.2h3.4Z"/>
</svg>