<?xml version="1.0" encoding="UTF-8"?>
<svg id="Layer_1" xmlns="http://www.w3.org/2000/svg" version="1.1" viewBox="0 0 150 48">
  <!-- Generator: Adobe Illustrator 29.1.0, SVG Export Plug-In . SVG Version: 2.1.0 Build 142)  -->
  <defs>
    <style>
      .st0 {
        fill: #fff;
      }
    </style>
  </defs>
  <g>
    <path class="st0" d="M37,29.1c-.4.7-1,1.2-1.8,1.6s-1.8.6-2.9.6-2.1-.2-3-.6-1.6-.9-2.1-1.6-.8-1.5-.9-2.5h3.4c0,.6.3,1.2.8,1.6.4.4,1,.6,1.8.6s1.2-.2,1.5-.5.5-.8.5-1.4,0-.9-.4-1.2c-.3-.3-.6-.6-1.1-.8-.4-.2-1-.4-1.8-.7-1-.3-1.8-.7-2.4-1s-1.2-.8-1.6-1.4-.7-1.4-.7-2.4.5-2.4,1.5-3.2c1-.8,2.3-1.2,3.9-1.2s3,.4,4,1.2c1,.8,1.6,1.9,1.7,3.2h-3.4c0-.6-.3-1-.7-1.4s-.9-.5-1.6-.5-1.1.2-1.4.5c-.4.3-.5.7-.5,1.3s.1.8.4,1.2c.3.3.6.6,1.1.7.4.2,1,.4,1.7.6,1,.4,1.8.7,2.5,1,.6.3,1.2.8,1.6,1.4.4.6.7,1.4.7,2.5s-.2,1.5-.6,2.2l-.2.2Z"/>
    <path class="st0" d="M50.8,20c.8.9,1.3,2.3,1.3,4v7.2h-3.1v-6.8c0-1-.3-1.7-.8-2.3-.5-.5-1.2-.8-2.1-.8s-1.6.3-2.1.9-.8,1.4-.8,2.5v6.6h-3.2V14.6h3.2v6.6c.3-.8.9-1.5,1.6-2,.8-.5,1.6-.7,2.6-.7s2.6.5,3.4,1.4h0Z"/>
    <path class="st0" d="M62.3,19.3c.7.5,1.3,1.2,1.6,2v-2.6h3.1v12.4h-3.1v-2.6c-.3.8-.8,1.5-1.6,2-.7.5-1.6.7-2.7.7s-2-.3-2.8-.8-1.5-1.2-2-2.2-.7-2.1-.7-3.4.2-2.4.7-3.4,1.1-1.7,2-2.2c.8-.5,1.8-.8,2.8-.8s1.9.2,2.7.7v.2ZM58.3,22.3c-.6.6-.9,1.5-.9,2.6s.3,2,.9,2.6c.6.6,1.4.9,2.4.9s1.7-.3,2.4-1c.6-.6.9-1.5.9-2.6s-.3-2-.9-2.6c-.6-.6-1.4-1-2.4-1s-1.8.3-2.4,1h0Z"/>
    <path class="st0" d="M89.2,20c.9.9,1.3,2.3,1.3,4v7.2h-3.1v-6.8c0-1-.2-1.7-.7-2.2s-1.2-.8-2-.8-1.6.3-2.1.8c-.5.6-.8,1.4-.8,2.4v6.6h-3.1v-6.8c0-1-.2-1.7-.7-2.2s-1.1-.8-2-.8-1.6.3-2.1.8-.8,1.4-.8,2.4v6.6h-3.2v-12.4h3.2v2.3c.3-.8.8-1.4,1.6-1.9.7-.4,1.5-.7,2.5-.7s1.9.2,2.6.7,1.3,1.2,1.7,2.1c.4-.8,1-1.5,1.7-2,.8-.5,1.6-.7,2.6-.7,1.5,0,2.7.5,3.6,1.4h-.2Z"/>
    <path class="st0" d="M95.8,15.2c0,1-.2,1.7-.7,2.3-.5.5-1.2.8-2.1.8v-1.3c.4,0,.7-.1.9-.3.2-.2.3-.6.3-1.1v-.4h-1.3v-2.4h2.6c.2.8.4,1.6.4,2.4h-.1Z"/>
    <path class="st0" d="M106,19.7c.9.8,1.5,1.8,1.7,3h-2.9c0-.6-.4-1.1-.8-1.4-.4-.4-1-.5-1.6-.5s-1,.1-1.3.4-.4.6-.4,1,0,.6.4.8c.2.2.5.4.9.5s.9.3,1.5.4c.9.2,1.7.4,2.3.7s1.1.6,1.5,1.1.6,1.2.6,2-.4,1.9-1.2,2.6c-.8.7-1.9,1-3.3,1s-2.9-.4-3.9-1.1-1.6-1.8-1.8-3.1h3c0,.6.3,1.1.8,1.4.5.4,1.1.5,1.8.5s.9-.1,1.2-.4c.3-.3.4-.6.4-1s0-.6-.4-.9c-.2-.2-.6-.4-.9-.5-.4-.1-.9-.3-1.6-.4-.9-.2-1.7-.4-2.2-.6-.6-.2-1.1-.6-1.5-1-.4-.5-.6-1.1-.6-2s.4-1.9,1.2-2.6c.8-.7,2-1,3.4-1s2.7.4,3.6,1.1h.1Z"/>
    <path class="st0" d="M123.3,31.1l-3.7-6.1h-1.4v6.1h-3.2v-15.8h6c1.8,0,3.2.4,4.2,1.3,1,.9,1.4,2.1,1.4,3.5s-.3,2.2-1,3-1.6,1.3-2.9,1.6l3.9,6.3h-3.5.2ZM118.3,22.8h2.6c1.8,0,2.7-.8,2.7-2.4s-.2-1.4-.7-1.8-1.1-.6-2-.6h-2.6v4.8Z"/>
    <path class="st0" d="M129.1,14c.4-.3.8-.5,1.4-.5s1.1.2,1.4.5c.4.3.5.7.5,1.2s-.2.9-.5,1.2c-.4.3-.8.5-1.4.5s-1-.2-1.4-.5-.5-.7-.5-1.2.2-.9.5-1.2ZM132,18.8v12.4h-3.2v-12.4h3.2Z"/>
    <path class="st0" d="M142.4,19.3c.7.5,1.3,1.2,1.6,2v-2.6h3.1v12.4c0,1.1-.2,2.2-.7,3.1-.5.9-1.1,1.6-2,2.2-.9.5-2,.8-3.3.8s-3.2-.4-4.3-1.3-1.8-2-2-3.5h3.1c.2.6.5,1.1,1,1.5.5.3,1.2.5,2,.5s1.7-.3,2.2-.8c.6-.5.8-1.4.8-2.5v-2.6c-.3.8-.8,1.5-1.6,2-.7.5-1.6.7-2.7.7s-2-.3-2.8-.8-1.5-1.2-2-2.2-.7-2.1-.7-3.4.2-2.4.7-3.4,1.1-1.7,2-2.2c.8-.5,1.8-.8,2.8-.8s1.9.2,2.7.7v.2ZM138.4,22.3c-.6.6-.9,1.5-.9,2.6s.3,2,.9,2.6c.6.6,1.4.9,2.4.9s1.7-.3,2.4-1c.6-.6.9-1.5.9-2.6s-.3-2-.9-2.6-1.4-1-2.4-1-1.8.3-2.4,1h0Z"/>
  </g>
  <path class="st0" d="M13.3,22.5c-1.8-1.5-3.5-2.8-5-4.4-1.6-1.8-2.6-3.4-3-5-.7-2.9.8-6.2,3.4-7.7,2.6-1.5,6.1-1.2,8.5.7,1.4,1.2,2.4,2.8,2.6,4.6.2,1.4,0,2.8-.7,4-.5-.1-3-.7-4.7,1.2l-2.7,3.4,6.5,5.5,2.8-3.3s1.8-2,.6-4.7c1.2-1.9,1.8-4.3,1.5-6.6-.4-2.5-1.8-5-3.8-6.6-1.6-1.3-3.8-2.2-5.9-2.3-2.2-.2-4.4.3-6.3,1.4-1.8,1.1-3.3,2.8-4.2,4.8-.9,2.1-1.1,4.3-.7,6.4.5,2.2,1.7,4.3,3.8,6.5,1.6,1.7,3.5,3.2,5.3,4.7,2.5,2,4.9,4,6.6,6.4.9,1.3,2.4,4,1.9,6.7-.3,1.6-1.4,3.1-2.9,4.2-2.9,2-7,1.7-9.5-.6-1.9-1.8-2.6-4.7-1.9-7.1.7.2,3,.5,4.5-1.2l2.7-3.4-1.3-1.1.7-.8c.3-.4.3-.9-.1-1.3s-.9-.3-1.3.1l-.6.8-1.2-1,.7-.8c.3-.4.3-.9-.1-1.3h0c-.4-.3-.9-.3-1.3.1l-.7.8-1.3-1.1-2.8,3.3s-1.8,2-.6,4.7c-.7,1.6-1,3.4-.8,5.2.3,2.6,1.4,4.9,3.1,6.5,1.7,1.6,4.1,2.6,6.6,2.8.2,0,.5,0,.7,0,2.3,0,4.4-.7,6.2-1.9,2.2-1.5,3.8-3.8,4.2-6.2.6-2.9-.3-6.1-2.5-9.2-2-2.8-4.6-5-7.2-7.1ZM18.4,18.7c-.5,0-.9-.4-.9-.9s.4-.9.9-.9.9.4.9.9-.4.9-.9.9Z"/>
</svg>